<?xml version="1.0" encoding="utf-8"?><svg fill="none" viewBox="0 0 1600 1200" xmlns="http://www.w3.org/2000/svg"><defs><linearGradient id="null" gradientUnits="userSpaceOnUse" spreadMethod="pad" x2="-915.619" y2="1437.914" x1="-1111.197" y1="1377.241"><stop offset="0%" stop-color="#3919bb" /><stop offset="50%" stop-color="#4f10db" /><stop offset="100%" stop-color="#6507fa" /></linearGradient><linearGradient id="null" gradientUnits="userSpaceOnUse" spreadMethod="pad" x2="-915.619" y2="1437.914" x1="-1111.197" y1="1377.241"><stop offset="0%" stop-color="#3919bb" /><stop offset="50%" stop-color="#4f10db" /><stop offset="100%" stop-color="#6507fa" /></linearGradient></defs><g transform="matrix(1,0,0,1,800,600)" id="Shape Layer 1"><g id="Rectangle 1"><rect height="1200" width="1600" y="0" x="0" fill="none" /></g></g><g transform="matrix(1,0,0,1,800,600)" opacity="0.4" id="Lines"><g id="Group 72"><path fill="#4a90e2" fill-opacity="1" d="M355.13,-268.283L442.583,-217.791L530.033,-268.28L442.58,-318.77L355.13,-268.283ZM442.583,-213.942L348.467,-268.283L442.58,-322.618L443.411,-322.137L536.696,-268.28L442.583,-213.942Z" /></g><g id="Group 71"><path fill="#4a90e2" fill-opacity="1" d="M173.566,-268.283L261.016,-217.794L348.467,-268.283L261.016,-318.773L173.566,-268.283ZM261.016,-213.945L166.903,-268.283L261.016,-322.621L355.13,-268.283L261.016,-213.945Z" /></g><g id="Group 70"><path fill="#4a90e2" fill-opacity="1" d="M264.348,-215.87L351.801,-165.38L439.251,-215.867L351.798,-266.359L264.348,-215.87ZM351.801,-161.532L350.969,-162.013L257.685,-215.87L351.798,-270.208L445.914,-215.867L351.801,-161.532Z" /></g><g id="Group 69"><path fill="#4a90e2" fill-opacity="1" d="M355.132,-163.456L442.586,-112.966L530.036,-163.453L442.583,-213.942L355.132,-163.456ZM442.586,-109.118L441.754,-109.6L348.47,-163.456L442.583,-217.791L443.414,-217.309L536.699,-163.453L442.586,-109.118Z" /></g><g id="Group 68"><path fill="#4a90e2" fill-opacity="1" d="M-8,-268.286L79.453,-217.797L166.903,-268.283L79.45,-318.773L-8,-268.286ZM79.453,-213.948L78.621,-214.43L-14.663,-268.286L79.45,-322.621L80.281,-322.14L173.566,-268.283L79.453,-213.948Z" /></g><g id="Group 67"><path fill="#4a90e2" fill-opacity="1" d="M82.784,-215.873L170.235,-165.38L257.685,-215.87L170.235,-266.359L82.784,-215.873ZM170.235,-161.532L76.121,-215.873L170.235,-270.208L264.348,-215.87L170.235,-161.532Z" /></g><g id="Group 66"><path fill="#4a90e2" fill-opacity="1" d="M173.566,-163.456L261.019,-112.966L348.47,-163.456L261.016,-213.945L173.566,-163.456ZM261.019,-109.118L260.188,-109.6L166.903,-163.456L261.016,-217.794L261.848,-217.312L355.132,-163.456L261.019,-109.118Z" /></g><g id="Group 65"><path fill="#4a90e2" fill-opacity="1" d="M264.351,-111.042L351.804,-60.553L439.254,-111.042L351.801,-161.532L264.351,-111.042ZM351.804,-56.704L350.972,-57.186L257.688,-111.042L351.801,-165.38L352.633,-164.898L445.917,-111.042L351.804,-56.704Z" /></g><g id="Group 64"><path fill="#4a90e2" fill-opacity="1" d="M355.135,-58.628L442.589,-8.139L530.039,-58.626L442.586,-109.118L355.135,-58.628ZM442.589,-4.29L441.757,-4.772L348.473,-58.628L442.586,-112.966L536.702,-58.626L442.589,-4.29Z" /></g><g id="Group 63"><path fill="#4a90e2" fill-opacity="1" d="M-189.567,-268.286L-102.113,-217.797L-14.663,-268.286L-102.117,-318.776L-189.567,-268.286ZM-102.113,-213.948L-102.945,-214.43L-196.23,-268.286L-102.117,-322.624L-101.285,-322.143L-8,-268.286L-102.113,-213.948Z" /></g><g id="Group 62"><path fill="#4a90e2" fill-opacity="1" d="M-98.782,-215.873L-11.329,-165.383L76.121,-215.873L-11.332,-266.362L-98.782,-215.873ZM-11.329,-161.535L-12.16,-162.016L-105.445,-215.873L-11.332,-270.211L-10.5,-269.729L82.784,-215.873L-11.329,-161.535Z" /></g><g id="Group 61"><path fill="#4a90e2" fill-opacity="1" d="M-7.997,-163.459L79.456,-112.969L166.903,-163.456L79.453,-213.948L-7.997,-163.459ZM79.456,-109.121L78.624,-109.603L-14.66,-163.459L79.453,-217.797L173.566,-163.456L79.456,-109.121Z" /></g><g id="Group 60"><path fill="#4a90e2" fill-opacity="1" d="M82.787,-111.045L170.238,-60.553L257.688,-111.042L170.235,-161.532L82.787,-111.045ZM170.238,-56.704L76.124,-111.045L170.235,-165.38L171.066,-164.898L264.351,-111.042L170.238,-56.704Z" /></g><g id="Group 59"><path fill="#4a90e2" fill-opacity="1" d="M173.569,-58.628L261.022,-8.139L348.473,-58.628L261.019,-109.118L173.569,-58.628ZM261.022,-4.29L260.191,-4.772L166.906,-58.628L261.019,-112.966L261.851,-112.485L355.135,-58.628L261.022,-4.29Z" /></g><g id="Group 58"><path fill="#4a90e2" fill-opacity="1" d="M264.354,-6.215L351.807,44.275L439.257,-6.215L351.804,-56.704L264.354,-6.215ZM351.807,48.123L350.975,47.641L257.691,-6.215L351.804,-60.553L352.635,-60.071L445.92,-6.215L351.807,48.123Z" /></g><g id="Group 57"><path fill="#4a90e2" fill-opacity="1" d="M355.138,46.199L442.592,96.689L530.042,46.199L442.589,-4.29L355.138,46.199ZM442.592,100.537L441.76,100.055L348.475,46.199L442.589,-8.139L443.42,-7.657L536.705,46.199L442.592,100.537Z" /></g><g id="Group 56"><path fill="#4a90e2" fill-opacity="1" d="M-371.133,-268.289L-283.68,-217.8L-196.23,-268.286L-283.683,-318.776L-371.133,-268.289ZM-283.68,-213.951L-284.511,-214.433L-377.796,-268.289L-283.683,-322.624L-282.851,-322.143L-189.567,-268.286L-283.68,-213.951Z" /></g><g id="Group 55"><path fill="#4a90e2" fill-opacity="1" d="M-280.349,-215.876L-192.895,-165.383L-105.445,-215.873L-192.898,-266.362L-280.349,-215.876ZM-192.895,-161.535L-287.011,-215.876L-192.898,-270.211L-192.067,-269.729L-98.782,-215.873L-192.895,-161.535Z" /></g><g id="Group 54"><path fill="#4a90e2" fill-opacity="1" d="M-189.564,-163.459L-102.11,-112.969L-14.66,-163.459L-102.113,-213.948L-189.564,-163.459ZM-102.11,-109.121L-102.942,-109.603L-196.227,-163.459L-102.113,-217.797L-101.282,-217.315L-7.997,-163.459L-102.11,-109.121Z" /></g><g id="Group 53"><path fill="#4a90e2" fill-opacity="1" d="M-98.779,-111.045L-11.326,-60.556L76.124,-111.045L-11.329,-161.535L-98.779,-111.045ZM-11.326,-56.707L-12.157,-57.189L-105.442,-111.045L-11.329,-165.383L-10.497,-164.901L82.787,-111.045L-11.326,-56.707Z" /></g><g id="Group 52"><path fill="#4a90e2" fill-opacity="1" d="M-7.994,-58.631L79.456,-8.142L166.906,-58.628L79.456,-109.121L-7.994,-58.631ZM79.456,-4.293L-14.657,-58.631L79.456,-112.969L173.569,-58.628L79.456,-4.293Z" /></g><g id="Group 51"><path fill="#4a90e2" fill-opacity="1" d="M82.787,-6.218L170.241,44.272L257.691,-6.215L170.238,-56.704L82.787,-6.218ZM170.241,48.12L169.409,47.639L76.124,-6.218L170.238,-60.553L171.069,-60.071L264.354,-6.215L170.241,48.12Z" /></g><g id="Group 50"><path fill="#4a90e2" fill-opacity="1" d="M173.572,46.196L261.025,96.689L348.475,46.199L261.022,-4.29L173.572,46.196ZM261.025,100.537L166.909,46.196L261.022,-8.139L261.854,-7.657L355.138,46.199L261.025,100.537Z" /></g><g id="Group 49"><path fill="#4a90e2" fill-opacity="1" d="M264.357,98.613L351.81,149.102L439.26,98.613L351.807,48.123L264.357,98.613ZM351.81,152.951L350.979,152.469L257.694,98.613L351.807,44.275L352.638,44.757L445.923,98.613L351.81,152.951Z" /></g><g id="Group 48"><path fill="#4a90e2" fill-opacity="1" d="M355.141,151.027L442.595,201.516L530.045,151.027L442.592,100.537L355.141,151.027ZM442.595,205.365L441.763,204.883L348.478,151.027L442.592,96.689L443.423,97.17L536.708,151.027L442.595,205.365Z" /></g><g id="Group 47"><path fill="#4a90e2" fill-opacity="1" d="M-552.7,-268.289L-465.246,-217.8L-377.796,-268.289L-465.249,-318.779L-552.7,-268.289ZM-465.246,-213.951L-466.078,-214.433L-559.363,-268.289L-465.249,-322.627L-464.418,-322.145L-371.133,-268.289L-465.246,-213.951Z" /></g><g id="Group 46"><path fill="#4a90e2" fill-opacity="1" d="M-461.915,-215.876L-374.462,-165.386L-287.011,-215.876L-374.465,-266.365L-461.915,-215.876ZM-374.462,-161.538L-375.293,-162.019L-468.578,-215.876L-374.465,-270.214L-373.633,-269.732L-280.349,-215.876L-374.462,-161.538Z" /></g><g id="Group 45"><path fill="#4a90e2" fill-opacity="1" d="M-371.13,-163.462L-283.677,-112.972L-196.227,-163.459L-283.68,-213.951L-371.13,-163.462ZM-283.677,-109.124L-284.508,-109.606L-377.793,-163.462L-283.68,-217.8L-189.564,-163.459L-283.677,-109.124Z" /></g><g id="Group 44"><path fill="#4a90e2" fill-opacity="1" d="M-280.346,-111.048L-192.892,-60.556L-105.442,-111.045L-192.895,-161.535L-280.346,-111.048ZM-192.892,-56.707L-287.009,-111.048L-192.895,-165.383L-192.064,-164.901L-98.779,-111.045L-192.892,-56.707Z" /></g><g id="Group 43"><path fill="#4a90e2" fill-opacity="1" d="M-189.561,-58.631L-102.108,-8.142L-14.657,-58.631L-102.11,-109.121L-189.561,-58.631ZM-102.108,-4.293L-102.939,-4.775L-196.224,-58.631L-102.11,-112.969L-101.279,-112.488L-7.994,-58.631L-102.108,-4.293Z" /></g><g id="Group 42"><path fill="#4a90e2" fill-opacity="1" d="M-98.776,-6.218L-11.326,44.272L76.124,-6.218L-11.326,-56.707L-98.776,-6.218ZM-11.326,48.12L-105.439,-6.218L-11.326,-60.556L82.787,-6.218L-11.326,48.12Z" /></g><g id="Group 41"><path fill="#4a90e2" fill-opacity="1" d="M-7.994,46.196L79.459,96.686L166.909,46.196L79.456,-4.293L-7.994,46.196ZM79.459,100.534L78.627,100.052L-14.657,46.196L79.456,-8.142L80.287,-7.66L173.572,46.196L79.459,100.534Z" /></g><g id="Group 40"><path fill="#4a90e2" fill-opacity="1" d="M82.79,98.61L170.244,149.099L257.694,98.613L170.241,48.12L82.79,98.61ZM170.244,152.948L169.412,152.466L76.127,98.61L170.241,44.272L264.357,98.613L170.244,152.948Z" /></g><g id="Group 39"><path fill="#4a90e2" fill-opacity="1" d="M173.575,151.024L261.028,201.516L348.478,151.027L261.025,100.537L173.575,151.024ZM261.028,205.365L166.912,151.024L261.025,96.689L261.857,97.17L355.141,151.027L261.028,205.365Z" /></g><g id="Group 38"><path fill="#4a90e2" fill-opacity="1" d="M264.36,203.44L351.813,253.93L439.263,203.44L351.81,152.951L264.36,203.44ZM351.813,257.778L350.982,257.297L257.697,203.44L351.81,149.102L352.641,149.584L445.926,203.44L351.813,257.778Z" /></g><g id="Group 37"><path fill="#4a90e2" fill-opacity="1" d="M355.144,255.854L442.598,306.344L530.048,255.854L442.595,205.365L355.144,255.854ZM442.598,310.192L441.766,309.71L348.481,255.854L442.595,201.516L443.426,201.998L536.711,255.854L442.598,310.192Z" /></g><g id="Group 36"><path fill="#4a90e2" fill-opacity="1" d="M-552.697,-163.462L-465.243,-112.972L-377.793,-163.462L-465.246,-213.951L-552.697,-163.462ZM-465.243,-109.124L-466.075,-109.606L-559.36,-163.462L-465.246,-217.8L-464.415,-217.318L-371.13,-163.462L-465.243,-109.124Z" /></g><g id="Group 35"><path fill="#4a90e2" fill-opacity="1" d="M-461.912,-111.048L-374.459,-60.558L-287.009,-111.048L-374.462,-161.538L-461.912,-111.048ZM-374.459,-56.71L-375.29,-57.192L-468.575,-111.048L-374.462,-165.386L-373.63,-164.904L-280.346,-111.048L-374.459,-56.71Z" /></g><g id="Group 34"><path fill="#4a90e2" fill-opacity="1" d="M-371.127,-58.634L-283.674,-8.145L-196.224,-58.631L-283.677,-109.124L-371.127,-58.634ZM-283.674,-4.296L-284.505,-4.778L-377.79,-58.634L-283.677,-112.972L-189.561,-58.631L-283.674,-4.296Z" /></g><g id="Group 33"><path fill="#4a90e2" fill-opacity="1" d="M-280.343,-6.22L-192.889,44.269L-105.439,-6.218L-192.892,-56.707L-280.343,-6.22ZM-192.889,48.118L-193.721,47.636L-287.006,-6.22L-192.892,-60.556L-192.061,-60.074L-98.776,-6.218L-192.889,48.118Z" /></g><g id="Group 32"><path fill="#4a90e2" fill-opacity="1" d="M-189.558,46.193L-102.105,96.686L-14.657,46.196L-102.108,-4.293L-189.558,46.193ZM-102.105,100.534L-196.221,46.193L-102.108,-8.142L-7.994,46.196L-102.105,100.534Z" /></g><g id="Group 31"><path fill="#4a90e2" fill-opacity="1" d="M-98.773,98.61L-11.323,149.099L76.127,98.61L-11.326,48.12L-98.773,98.61ZM-11.323,152.948L-105.436,98.61L-11.326,44.272L-10.494,44.754L82.79,98.61L-11.323,152.948Z" /></g><g id="Group 30"><path fill="#4a90e2" fill-opacity="1" d="M-7.991,151.024L79.462,201.513L166.912,151.024L79.459,100.534L-7.991,151.024ZM79.462,205.362L78.63,204.88L-14.655,151.024L79.459,96.686L80.29,97.167L173.575,151.024L79.462,205.362Z" /></g><g id="Group 29"><path fill="#4a90e2" fill-opacity="1" d="M82.793,203.437L170.246,253.927L257.697,203.44L170.244,152.948L82.793,203.437ZM170.246,257.775L169.415,257.294L76.13,203.437L170.244,149.099L264.36,203.44L170.246,257.775Z" /></g><g id="Group 28"><path fill="#4a90e2" fill-opacity="1" d="M173.578,255.851L261.031,306.341L348.481,255.854L261.028,205.365L173.578,255.851ZM261.031,310.189L260.2,309.707L166.915,255.851L261.028,201.516L261.86,201.998L355.144,255.854L261.031,310.189Z" /></g><g id="Group 27"><path fill="#4a90e2" fill-opacity="1" d="M264.363,308.265L351.816,358.757L439.266,308.268L351.813,257.778L264.363,308.265ZM351.816,362.606L257.699,308.265L351.813,253.93L352.644,254.412L445.929,308.268L351.816,362.606Z" /></g><g id="Group 26"><path fill="#4a90e2" fill-opacity="1" d="M355.147,360.682L442.6,411.171L530.051,360.682L442.598,310.192L355.147,360.682ZM442.6,415.02L441.769,414.538L348.484,360.682L442.598,306.344L443.429,306.825L536.714,360.682L442.6,415.02Z" /></g><g id="Group 25"><path fill="#4a90e2" fill-opacity="1" d="M-552.694,-58.637L-465.241,-8.145L-377.79,-58.634L-465.243,-109.124L-552.694,-58.637ZM-465.241,-4.296L-559.357,-58.637L-465.243,-112.972L-464.412,-112.49L-371.127,-58.634L-465.241,-4.296Z" /></g><g id="Group 24"><path fill="#4a90e2" fill-opacity="1" d="M-461.909,-6.22L-374.456,44.269L-287.006,-6.22L-374.459,-56.71L-461.909,-6.22ZM-374.456,48.118L-375.287,47.636L-468.572,-6.22L-374.459,-60.558L-373.627,-60.077L-280.343,-6.22L-374.456,48.118Z" /></g><g id="Group 23"><path fill="#4a90e2" fill-opacity="1" d="M-371.124,46.193L-283.671,96.683L-196.221,46.193L-283.674,-4.296L-371.124,46.193ZM-283.671,100.531L-284.503,100.049L-377.787,46.193L-283.674,-8.145L-282.843,-7.663L-189.558,46.193L-283.671,100.531Z" /></g><g id="Group 22"><path fill="#4a90e2" fill-opacity="1" d="M-280.34,98.607L-192.887,149.097L-105.436,98.61L-192.889,48.118L-280.34,98.607ZM-192.887,152.945L-193.718,152.463L-287.003,98.607L-192.889,44.269L-98.773,98.61L-192.887,152.945Z" /></g><g id="Group 21"><path fill="#4a90e2" fill-opacity="1" d="M-189.555,151.021L-102.105,201.51L-14.655,151.024L-102.105,100.534L-189.555,151.021ZM-102.105,205.359L-196.218,151.021L-102.105,96.686L-7.991,151.024L-102.105,205.359Z" /></g><g id="Group 20"><path fill="#4a90e2" fill-opacity="1" d="M-98.773,203.435L-11.32,253.927L76.13,203.437L-11.323,152.948L-98.773,203.435ZM-11.32,257.775L-105.436,203.435L-11.323,149.099L-10.492,149.581L82.793,203.437L-11.32,257.775Z" /></g><g id="Group 19"><path fill="#4a90e2" fill-opacity="1" d="M-7.988,255.851L79.465,306.341L166.915,255.851L79.462,205.362L-7.988,255.851ZM79.465,310.189L78.633,309.707L-14.652,255.851L79.462,201.513L80.293,201.995L173.578,255.851L79.465,310.189Z" /></g><g id="Group 18"><path fill="#4a90e2" fill-opacity="1" d="M82.796,308.265L170.249,358.754L257.699,308.265L170.246,257.775L82.796,308.265ZM170.249,362.603L169.418,362.121L76.133,308.265L170.246,253.927L171.078,254.409L264.363,308.265L170.249,362.603Z" /></g><g id="Group 17"><path fill="#4a90e2" fill-opacity="1" d="M173.581,360.679L261.034,411.168L348.484,360.682L261.031,310.189L173.581,360.679ZM261.034,415.017L260.203,414.535L166.918,360.679L261.031,306.341L355.147,360.682L261.034,415.017Z" /></g><g id="Group 16"><path fill="#4a90e2" fill-opacity="1" d="M-552.691,46.19L-465.238,96.683L-377.787,46.193L-465.241,-4.296L-552.691,46.19ZM-465.238,100.531L-559.354,46.19L-465.241,-8.145L-464.409,-7.663L-371.124,46.193L-465.238,100.531Z" /></g><g id="Group 15"><path fill="#4a90e2" fill-opacity="1" d="M-461.906,98.607L-374.453,149.097L-287.003,98.607L-374.456,48.118L-461.906,98.607ZM-374.453,152.945L-375.284,152.463L-468.569,98.607L-374.456,44.269L-373.625,44.751L-280.34,98.607L-374.453,152.945Z" /></g><g id="Group 14"><path fill="#4a90e2" fill-opacity="1" d="M-371.121,151.021L-283.668,201.51L-196.218,151.021L-283.671,100.531L-371.121,151.021ZM-283.668,205.359L-284.5,204.877L-377.785,151.021L-283.671,96.683L-282.84,97.165L-189.555,151.021L-283.668,205.359Z" /></g><g id="Group 13"><path fill="#4a90e2" fill-opacity="1" d="M-280.337,203.435L-192.887,253.924L-105.436,203.435L-192.887,152.945L-280.337,203.435ZM-192.887,257.773L-287,203.435L-192.887,149.097L-98.773,203.435L-192.887,257.773Z" /></g><g id="Group 12"><path fill="#4a90e2" fill-opacity="1" d="M-189.555,255.848L-102.102,306.338L-14.652,255.851L-102.105,205.359L-189.555,255.848ZM-102.102,310.186L-102.933,309.705L-196.218,255.848L-102.105,201.51L-7.988,255.851L-102.102,310.186Z" /></g><g id="Group 11"><path fill="#4a90e2" fill-opacity="1" d="M-98.77,308.262L-11.317,358.754L76.133,308.265L-11.32,257.775L-98.77,308.262ZM-11.317,362.603L-105.433,308.262L-11.32,253.927L-10.489,254.409L82.796,308.265L-11.317,362.603Z" /></g><g id="Group 10"><path fill="#4a90e2" fill-opacity="1" d="M-7.986,360.679L79.467,411.168L166.918,360.679L79.465,310.189L-7.986,360.679ZM79.467,415.017L78.636,414.535L-14.649,360.679L79.465,306.341L80.296,306.822L173.581,360.679L79.467,415.017Z" /></g><g id="Group 9"><path fill="#4a90e2" fill-opacity="1" d="M-552.688,151.018L-465.235,201.507L-377.785,151.021L-465.238,100.531L-552.688,151.018ZM-465.235,205.356L-466.066,204.874L-559.351,151.018L-465.238,96.683L-464.406,97.165L-371.121,151.021L-465.235,205.356Z" /></g><g id="Group 8"><path fill="#4a90e2" fill-opacity="1" d="M-461.903,203.432L-374.45,253.924L-287,203.435L-374.453,152.945L-461.903,203.432ZM-374.45,257.773L-468.566,203.432L-374.453,149.097L-373.622,149.578L-280.337,203.435L-374.45,257.773Z" /></g><g id="Group 7"><path fill="#4a90e2" fill-opacity="1" d="M-371.118,255.848L-283.665,306.338L-196.218,255.848L-283.668,205.359L-371.118,255.848ZM-283.665,310.186L-284.497,309.705L-377.782,255.848L-283.668,201.51L-189.555,255.848L-283.665,310.186Z" /></g><g id="Group 6"><path fill="#4a90e2" fill-opacity="1" d="M-280.334,308.262L-192.884,358.752L-105.433,308.262L-192.887,257.773L-280.334,308.262ZM-192.884,362.6L-286.997,308.262L-192.887,253.924L-192.055,254.406L-98.77,308.262L-192.884,362.6Z" /></g><g id="Group 5"><path fill="#4a90e2" fill-opacity="1" d="M-189.552,360.676L-102.099,411.165L-14.649,360.679L-102.102,310.186L-189.552,360.676ZM-102.099,415.014L-102.93,414.532L-196.215,360.676L-102.102,306.338L-7.986,360.679L-102.099,415.014Z" /></g><g id="Group 4"><path fill="#4a90e2" fill-opacity="1" d="M-552.685,255.845L-465.232,306.335L-377.782,255.848L-465.235,205.356L-552.685,255.845ZM-465.232,310.183L-466.063,309.702L-559.348,255.845L-465.235,201.507L-371.118,255.848L-465.232,310.183Z" /></g><g id="Group 3"><path fill="#4a90e2" fill-opacity="1" d="M-461.9,308.259L-374.447,358.749L-286.997,308.262L-374.45,257.773L-461.9,308.259ZM-374.447,362.597L-375.279,362.115L-468.563,308.259L-374.45,253.924L-373.619,254.406L-280.334,308.262L-374.447,362.597Z" /></g><g id="Group 2"><path fill="#4a90e2" fill-opacity="1" d="M-371.116,360.673L-283.665,411.165L-196.215,360.676L-283.665,310.186L-371.116,360.673ZM-283.665,415.014L-377.779,360.673L-283.665,306.338L-189.552,360.676L-283.665,415.014Z" /></g><g id="Group 1"><path fill="#4a90e2" fill-opacity="1" d="M-552.682,360.673L-465.229,411.162L-377.779,360.673L-465.232,310.183L-552.682,360.673ZM-465.229,415.011L-466.06,414.529L-559.345,360.673L-465.232,306.335L-464.4,306.817L-371.116,360.673L-465.229,415.011Z" /></g></g><g transform="matrix(0.994,0,0,1.003,799.999,600.001)" id="line left bottom"><g id="Shape 1"><path stroke-linejoin="miter" stroke-linecap="round" stroke-width="4" stroke-opacity="1" stroke="#214883" fill="#b3e0ff" fill-opacity="1" d="M-377.278,360.209L-12.325,151.364" /></g></g><g transform="matrix(-0.497,-0.861,0.868,-0.501,650.559,819.616)" id="line right bottom"><g id="Shape 1"><path stroke-linejoin="miter" stroke-linecap="round" stroke-width="4" stroke-opacity="1" stroke="#214883" fill="#b3e0ff" fill-opacity="1" d="M-378.888,364.47L-11.279,154.554" /></g></g><g transform="matrix(-0.994,0,0,-1.003,777.354,905.896)" id="line top right"><g id="Shape 1"><path stroke-linejoin="miter" stroke-linecap="round" stroke-width="4" stroke-opacity="1" stroke="#214883" fill="#b3e0ff" fill-opacity="1" d="M-419.871,388.409L-11.279,154.554" /></g></g><g transform="matrix(0.482,0.87,-0.877,0.486,927.937,688.701)" id="line top right 2"><g id="Shape 1"><path stroke-linejoin="miter" stroke-linecap="round" stroke-width="4" stroke-opacity="1" stroke="#214883" fill="#b3e0ff" fill-opacity="1" d="M-400.693,383.413L-12.955,151.637" /></g></g><g transform="matrix(1,0,0,1,800,600)" id="Main Sh"><g id="Group 1"><path fill="#7dc3ea" fill-opacity="1" d="M-27.362,299.255L-201.652,198.628C-208.039,194.94,-207.238,188.499,-199.863,184.241L-15.133,77.311C-7.758,73.053,3.4,72.59,9.787,76.278L184.077,176.904C190.464,180.592,189.663,187.033,182.288,191.291L-2.442,298.222C-9.817,302.48,-20.975,302.943,-27.362,299.255Z" /></g></g><g transform="matrix(1,0,0,1,800,600)" id="Main B"><g id="Group 1"><path fill="#4a90e2" fill-opacity="1" d="M-24.778,254.086C-19.992,256.85,-10.761,256.365,-5.024,253.051L179.7,146.123C182.285,144.631,183.223,143.112,183.223,142.457C183.223,142.069,182.688,141.373,181.495,140.683L7.203,40.056C2.417,37.291,-6.814,37.776,-12.551,41.09L-197.276,148.015C-199.861,149.507,-200.798,151.027,-200.798,151.685C-200.798,152.07,-200.264,152.769,-199.068,153.459L-24.778,254.086ZM-16.514,266.192C-21.491,266.192,-26.279,265.149,-29.943,263.034L-204.235,162.408C-208.618,159.876,-211.13,155.968,-211.13,151.685C-211.13,146.855,-207.966,142.257,-202.449,139.07L-17.722,32.145C-8.782,26.98,4.433,26.525,12.368,31.108L186.66,131.734C191.043,134.263,193.555,138.171,193.555,142.457C193.555,147.287,190.391,151.884,184.871,155.069L0.146,261.997C-4.666,264.776,-10.715,266.192,-16.514,266.192Z" /></g></g><g transform="matrix(1,0,0,1,800,600)" id="Main"><g id="Group 1"><g id="Group 18"><g id="Group 12"><g id="Group 1"><g id="Group 1"><g id="Group 8"><path fill="#396caa" fill-opacity="1" d="M-14.782,-230.413C-14.782,-230.413,-110.47,-221.297,-168.102,-216.871L-15.242,218.475L186.949,101.857C186.983,101.839,187.015,101.818,187.048,101.8L187.408,101.592L187.403,101.575C189.933,99.981,191.533,96.504,191.533,91.594L191.533,-333.92C191.533,-338.413,190.186,-343.25,188.021,-347.501L-14.782,-230.413Z" /></g><g id="Group 7"><path fill="#cce7fc" fill-opacity="1" d="M179.011,-357.844L1.197,-460.505C-1.894,-462.29,-4.719,-462.419,-6.903,-461.205L-6.904,-461.206L-209.908,-344.091L-200.344,-308.694L-149.444,-163.73L-139.862,-158.198L188.029,-347.506C185.751,-351.978,182.557,-355.797,179.011,-357.844Z" /></g><g id="Group 6"><path fill="#5793ce" fill-opacity="1" d="M-23.845,218.08L-201.66,115.418C-208.575,111.426,-214.181,100.715,-214.181,91.495L-214.181,-334.02C-214.181,-343.24,-208.575,-347.478,-201.66,-343.485L-23.845,-240.824C-16.93,-236.832,-11.324,-226.12,-11.324,-216.9L-11.324,208.614C-11.324,217.834,-16.93,222.072,-23.845,218.08Z" /></g><g id="Group 5"><path fill="#ffffff" fill-opacity="1" d="M-20.034,-242.963L-197.849,-345.624C-201.852,-347.934,-205.406,-347.474,-207.698,-344.9C-205.907,-345.184,-203.85,-344.749,-201.66,-343.485L-23.845,-240.824C-16.93,-236.831,-11.324,-226.12,-11.324,-216.9L-11.324,208.614C-11.324,212.497,-12.328,215.483,-13.996,217.356C-10.132,216.744,-7.513,212.776,-7.513,206.476L-7.513,-219.039C-7.513,-228.259,-13.119,-238.97,-20.034,-242.963Z" /></g><g id="Group 4"><path fill="url(#null)" d="M-35.032,192.464L-190.475,102.719C-196.52,99.229,-201.42,89.865,-201.42,81.805L-201.42,-313.378C-201.42,-321.438,-196.52,-325.143,-190.475,-321.653L-35.032,-231.908C-28.987,-228.418,-24.086,-219.054,-24.086,-210.994L-24.086,184.189C-24.086,192.249,-28.987,195.954,-35.032,192.464Z" /></g><g id="Group 3"><path fill="url(#null)" d="M-35.032,192.464L-190.475,102.719C-196.52,99.229,-201.42,89.865,-201.42,81.805L-201.42,-313.378C-201.42,-321.438,-196.52,-325.143,-190.475,-321.653L-35.032,-231.908C-28.987,-228.418,-24.086,-219.054,-24.086,-210.994L-24.086,184.189C-24.086,192.249,-28.987,195.954,-35.032,192.464Z" /></g><g id="Group 2"><path fill="#173d7a" fill-opacity="1" d="M-35.032,192.464L-190.475,102.719C-196.52,99.229,-201.42,89.865,-201.42,81.805L-201.42,-313.378C-201.42,-321.438,-196.52,-325.143,-190.475,-321.653L-35.032,-231.908C-28.987,-228.418,-24.086,-219.054,-24.086,-210.994L-24.086,184.189C-24.086,192.249,-28.987,195.954,-35.032,192.464Z" /></g><g id="Group 1"><path fill="#396caa" fill-opacity="1" d="M-29.953,189.476L-185.396,99.731C-191.441,96.241,-196.341,86.877,-196.341,78.817L-196.341,-316.366C-196.341,-319.114,-195.76,-321.341,-194.77,-322.964C-198.679,-322.994,-201.42,-319.405,-201.42,-313.378L-201.42,81.805C-201.42,89.865,-196.52,99.229,-190.475,102.719L-35.032,192.464C-31.048,194.764,-27.571,193.923,-25.656,190.786C-26.975,190.776,-28.427,190.357,-29.953,189.476Z" /></g></g></g></g><g id="Group 11"><g id="Group 6"><g id="Group 5"><path fill="#173d7a" fill-opacity="1" d="M-35.031,11.029L-92.807,-22.328L-184.955,30.874L-24.086,123.752L-24.086,31.943C-24.086,23.883,-28.986,14.519,-35.031,11.029Z" /></g><g id="Group 4"><path fill="#173d7a" fill-opacity="1" d="M-35.031,-69.95L-92.807,-103.307L-184.955,-50.105L-24.086,42.773L-24.086,-49.036C-24.086,-57.096,-28.986,-66.46,-35.031,-69.95Z" /></g><g id="Group 3"><path fill="#173d7a" fill-opacity="1" d="M-35.031,-150.929L-92.807,-184.286L-184.955,-131.084L-24.086,-38.206L-24.086,-130.015C-24.086,-138.075,-28.986,-147.439,-35.031,-150.929Z" /></g><g id="Group 2"><path fill="#173d7a" fill-opacity="1" d="M-35.031,-231.908L-92.807,-265.265L-184.955,-212.063L-24.086,-119.185L-24.086,-210.994C-24.086,-219.055,-28.986,-228.418,-35.031,-231.908Z" /></g><g id="Group 1"><path fill="#173d7a" fill-opacity="1" d="M-35.031,-231.908L-162.938,-305.755L-184.955,-293.044L-24.086,-200.166L-24.086,-210.994C-24.086,-219.055,-28.986,-228.418,-35.031,-231.908Z" /></g></g><g id="Group 5"><path fill="#5793ce" fill-opacity="1" d="M-24.086,-200.165L-184.955,-293.044L-184.955,-241.86L-24.086,-148.983L-24.086,-200.165Z" /></g><g id="Group 4"><path fill="#5793ce" fill-opacity="1" d="M-24.086,-119.186L-184.955,-212.065L-184.955,-160.881L-24.086,-68.004L-24.086,-119.186Z" /></g><g id="Group 3"><path fill="#5793ce" fill-opacity="1" d="M-24.086,-38.207L-184.955,-131.085L-184.955,-79.903L-24.086,12.975L-24.086,-38.207Z" /></g><g id="Group 2"><path fill="#5793ce" fill-opacity="1" d="M-24.086,42.772L-184.955,-50.107L-184.955,1.076L-24.086,93.954L-24.086,42.772Z" /></g><g id="Group 1"><path fill="#5793ce" fill-opacity="1" d="M-24.086,123.751L-184.955,30.872L-184.955,82.055L-24.086,174.933L-24.086,123.751Z" /></g></g><g id="Group 10"><g id="Group 3"><path fill="#173d7a" fill-opacity="1" d="M-38.273,-167.222L-159.441,-237.179C-162.862,-239.154,-165.636,-244.452,-165.636,-249.014L-165.636,-262.721C-165.636,-267.283,-162.862,-269.379,-159.441,-267.404L-38.273,-197.447C-34.852,-195.472,-32.079,-190.174,-32.079,-185.612L-32.079,-171.905C-32.079,-167.343,-34.852,-165.247,-38.273,-167.222Z" /></g><g id="Group 2" transform="matrix(1,0,0,1,0,0)" opacity="0.3"><path fill="#06033e" fill-opacity="1" d="M-153.317,-239.803C-156.739,-241.779,-159.512,-247.077,-159.512,-251.639L-159.512,-265.345C-159.512,-266.075,-159.418,-266.716,-159.285,-267.314L-159.441,-267.404C-162.862,-269.38,-165.636,-267.283,-165.636,-262.721L-165.636,-249.014C-165.636,-244.452,-162.862,-239.154,-159.441,-237.178L-38.273,-167.223C-35.4,-165.564,-33.006,-166.803,-32.306,-169.937L-153.317,-239.803Z" /></g><g id="Group 1"><path fill="#ffffff" fill-opacity="1" d="M-76.296,-204.791L-149.21,-246.888C-150.414,-247.583,-151.389,-249.447,-151.389,-251.051L-151.389,-251.051C-151.389,-252.656,-150.414,-253.394,-149.21,-252.699L-76.296,-210.602C-75.093,-209.907,-74.117,-208.043,-74.117,-206.438L-74.117,-206.438C-74.117,-204.833,-75.093,-204.096,-76.296,-204.791Z" /></g></g><g id="Group 9"><g id="Group 3"><path fill="#173d7a" fill-opacity="1" d="M-38.273,-86.743L-159.441,-156.7C-162.862,-158.675,-165.636,-163.973,-165.636,-168.535L-165.636,-182.242C-165.636,-186.803,-162.862,-188.9,-159.441,-186.925L-38.273,-116.969C-34.852,-114.994,-32.079,-109.695,-32.079,-105.133L-32.079,-91.426C-32.079,-86.865,-34.852,-84.768,-38.273,-86.743Z" /></g><g id="Group 2" transform="matrix(1,0,0,1,0,0)" opacity="0.3"><path fill="#06033e" fill-opacity="1" d="M-153.317,-159.324C-156.739,-161.3,-159.512,-166.598,-159.512,-171.16L-159.512,-184.866C-159.512,-185.596,-159.418,-186.238,-159.285,-186.835L-159.441,-186.925C-162.862,-188.901,-165.636,-186.804,-165.636,-182.242L-165.636,-168.535C-165.636,-163.973,-162.862,-158.676,-159.441,-156.7L-38.273,-86.743C-35.4,-85.084,-33.006,-86.324,-32.306,-89.458L-153.317,-159.324Z" /></g><g id="Group 1"><path fill="#ffffff" fill-opacity="1" d="M-76.296,-124.312L-149.21,-166.409C-150.414,-167.104,-151.389,-168.967,-151.389,-170.572L-151.389,-170.572C-151.389,-172.177,-150.414,-172.915,-149.21,-172.22L-76.296,-130.122C-75.093,-129.427,-74.117,-127.564,-74.117,-125.959L-74.117,-125.959C-74.117,-124.355,-75.093,-123.617,-76.296,-124.312Z" /></g></g><g id="Group 8"><g id="Group 3"><path fill="#173d7a" fill-opacity="1" d="M-38.273,-5.514L-159.441,-75.471C-162.862,-77.446,-165.636,-82.744,-165.636,-87.306L-165.636,-101.013C-165.636,-105.574,-162.862,-107.671,-159.441,-105.696L-38.273,-35.74C-34.852,-33.765,-32.079,-28.466,-32.079,-23.904L-32.079,-10.197C-32.079,-5.636,-34.852,-3.539,-38.273,-5.514Z" /></g><g id="Group 2" transform="matrix(1,0,0,1,0,0)" opacity="0.3"><path fill="#06033e" fill-opacity="1" d="M-153.317,-78.095C-156.739,-80.071,-159.512,-85.369,-159.512,-89.931L-159.512,-103.637C-159.512,-104.367,-159.418,-105.009,-159.285,-105.606L-159.441,-105.696C-162.862,-107.672,-165.636,-105.575,-165.636,-101.013L-165.636,-87.306C-165.636,-82.744,-162.862,-77.447,-159.441,-75.471L-38.273,-5.515C-35.4,-3.856,-33.006,-5.095,-32.306,-8.229L-153.317,-78.095Z" /></g><g id="Group 1"><path fill="#d4ecff" fill-opacity="1" d="M-76.296,-43.083L-149.21,-85.18C-150.414,-85.875,-151.389,-87.739,-151.389,-89.344L-151.389,-89.344C-151.389,-90.949,-150.414,-91.686,-149.21,-90.991L-76.296,-48.894C-75.093,-48.199,-74.117,-46.335,-74.117,-44.73L-74.117,-44.73C-74.117,-43.126,-75.093,-42.388,-76.296,-43.083Z" /></g></g><g id="Group 7"><g id="Group 3"><path fill="#173d7a" fill-opacity="1" d="M-38.273,76.464L-159.441,6.508C-162.862,4.533,-165.636,-0.766,-165.636,-5.328L-165.636,-19.034C-165.636,-23.596,-162.862,-25.692,-159.441,-23.717L-38.273,46.239C-34.852,48.214,-32.079,53.513,-32.079,58.075L-32.079,71.782C-32.079,76.344,-34.852,78.439,-38.273,76.464Z" /></g><g id="Group 2" transform="matrix(1,0,0,1,0,0)" opacity="0.3"><path fill="#06033e" fill-opacity="1" d="M-153.317,3.884C-156.739,1.908,-159.512,-3.39,-159.512,-7.952L-159.512,-21.658C-159.512,-22.388,-159.418,-23.03,-159.285,-23.627L-159.441,-23.717C-162.862,-25.693,-165.636,-23.596,-165.636,-19.034L-165.636,-5.328C-165.636,-0.766,-162.862,4.532,-159.441,6.508L-38.273,76.464C-35.4,78.123,-33.006,76.884,-32.306,73.75L-153.317,3.884Z" /></g><g id="Group 1" transform="matrix(1,0,0,1,0,0)"><path fill="#ffffff" fill-opacity="1" d="M-76.296,38.896L-149.21,-3.201C-150.414,-3.896,-151.389,-5.761,-151.389,-7.365L-151.389,-7.365C-151.389,-8.97,-150.414,-9.707,-149.21,-9.012L-76.296,33.085C-75.093,33.78,-74.117,35.644,-74.117,37.249L-74.117,37.249C-74.117,38.854,-75.093,39.591,-76.296,38.896Z" /></g></g><g id="Group 13"><g id="Group 1" transform="matrix(1,0,0,1,0,0)"><path fill="#e20f23" fill-opacity="1" d="M-149.358,-3.167L-149.21,-3.201C-149.687,-4.937,-151.389,-5.761,-151.389,-7.365L-151.389,-7.365C-151.389,-8.97,-149.813,-8.25,-149.523,-9.137L-149.671,-9.102C-148.468,-8.407,-151.367,-9.106,-151.367,-7.501L-151.367,-7.501C-151.367,-5.896,-148.155,-2.472,-149.358,-3.167Z" /></g></g><g id="Group 6"><g id="Group 3"><path fill="#173d7a" fill-opacity="1" d="M-38.273,156.818L-159.441,86.862C-162.862,84.887,-165.636,79.588,-165.636,75.026L-165.636,61.32C-165.636,56.758,-162.862,54.662,-159.441,56.637L-38.273,126.593C-34.852,128.568,-32.079,133.867,-32.079,138.429L-32.079,152.136C-32.079,156.698,-34.852,158.793,-38.273,156.818Z" /></g><g id="Group 2" transform="matrix(1,0,0,1,0,0)" opacity="0.3"><path fill="#06033e" fill-opacity="1" d="M-153.317,84.238C-156.739,82.262,-159.512,76.964,-159.512,72.402L-159.512,58.696C-159.512,57.966,-159.418,57.324,-159.285,56.727L-159.441,56.637C-162.862,54.661,-165.636,56.758,-165.636,61.32L-165.636,75.026C-165.636,79.588,-162.862,84.886,-159.441,86.862L-38.273,156.818C-35.4,158.477,-33.006,157.238,-32.306,154.104L-153.317,84.238Z" /></g><g id="Group 1"><path fill="#d4ecff" fill-opacity="1" d="M-76.296,119.25L-149.21,77.153C-150.414,76.458,-151.389,74.594,-151.389,72.989L-151.389,72.989C-151.389,71.384,-150.414,70.647,-149.21,71.342L-76.296,113.439C-75.093,114.134,-74.117,115.998,-74.117,117.603L-74.117,117.603C-74.117,119.208,-75.093,119.945,-76.296,119.25Z" /></g></g><g id="Group 5" transform="matrix(1,0,0,1,0,0)" opacity="0.5"><path fill="#173d7a" fill-opacity="1" d="M-184.955,-293.044L-172.287,-285.73L-172.287,-234.547L-184.955,-241.86L-184.955,-293.044Z" /></g><g id="Group 4" transform="matrix(1,0,0,1,0,0)" opacity="0.5"><path fill="#173d7a" fill-opacity="1" d="M-184.955,-212.065L-172.287,-204.751L-172.287,-153.568L-184.955,-160.881L-184.955,-212.065Z" /></g><g id="Group 3" transform="matrix(1,0,0,1,0,0)" opacity="0.5"><path fill="#173d7a" fill-opacity="1" d="M-184.955,-131.085L-172.287,-123.772L-172.287,-72.589L-184.955,-79.903L-184.955,-131.085Z" /></g><g id="Group 2" transform="matrix(1,0,0,1,0,0)" opacity="0.5"><path fill="#173d7a" fill-opacity="1" d="M-184.955,-50.107L-172.287,-42.793L-172.287,8.39L-184.955,1.076L-184.955,-50.107Z" /></g><g id="Group 1" transform="matrix(1,0,0,1,0,0)" opacity="0.5"><path fill="#173d7a" fill-opacity="1" d="M-184.955,30.872L-172.287,38.186L-172.287,89.369L-184.955,82.055L-184.955,30.872Z" /></g></g><g id="Group 17"><path fill="#d4ecff" fill-opacity="1" d="M-61.931,-199.737C-61.931,-198.101,-63.079,-197.438,-64.496,-198.256C-65.913,-199.074,-67.061,-201.063,-67.061,-202.698C-67.061,-204.334,-65.913,-204.997,-64.496,-204.179C-63.079,-203.361,-61.931,-201.373,-61.931,-199.737Z" /></g><g id="Group 16"><path fill="#ff2c9c" fill-opacity="1" d="M-51.057,-193.459C-51.057,-191.823,-52.206,-191.16,-53.622,-191.978C-55.039,-192.796,-56.187,-194.784,-56.187,-196.42C-56.187,-198.056,-55.039,-198.719,-53.622,-197.901C-52.206,-197.083,-51.057,-195.095,-51.057,-193.459Z" /></g><g id="Group 15"><path fill="#d4ecff" fill-opacity="1" d="M-40.183,-187.181C-40.183,-185.546,-41.331,-184.882,-42.748,-185.7C-44.164,-186.518,-45.313,-188.506,-45.313,-190.142C-45.313,-191.778,-44.164,-192.441,-42.748,-191.623C-41.331,-190.805,-40.183,-188.817,-40.183,-187.181Z" /></g><g id="Group 14"><path fill="#ff2c9c" fill-opacity="1" d="M-61.931,-118.799C-61.931,-117.164,-63.079,-116.5,-64.496,-117.318C-65.913,-118.136,-67.061,-120.124,-67.061,-121.76C-67.061,-123.396,-65.913,-124.059,-64.496,-123.241C-63.079,-122.423,-61.931,-120.435,-61.931,-118.799Z" /></g><g id="Group 13"><path fill="#d4ecff" fill-opacity="1" d="M-51.057,-112.521C-51.057,-110.885,-52.206,-110.222,-53.622,-111.04C-55.039,-111.858,-56.187,-113.846,-56.187,-115.482C-56.187,-117.118,-55.039,-117.781,-53.622,-116.963C-52.206,-116.145,-51.057,-114.157,-51.057,-112.521Z" /></g><g id="Group 12"><path fill="#4a90e2" fill-opacity="1" d="M-40.183,-106.243C-40.183,-104.607,-41.331,-103.944,-42.748,-104.762C-44.164,-105.58,-45.313,-107.569,-45.313,-109.205C-45.313,-110.84,-44.164,-111.503,-42.748,-110.685C-41.331,-109.867,-40.183,-107.879,-40.183,-106.243Z" /></g><g id="Group 11"><path fill="#4a90e2" fill-opacity="1" d="M-61.931,-37.249C-61.931,-35.613,-63.079,-34.951,-64.496,-35.769C-65.913,-36.587,-67.061,-38.575,-67.061,-40.211C-67.061,-41.847,-65.913,-42.51,-64.496,-41.692C-63.079,-40.874,-61.931,-38.885,-61.931,-37.249Z" /></g><g id="Group 10"><path fill="#ff2c9c" fill-opacity="1" d="M-51.057,-30.971C-51.057,-29.335,-52.206,-28.673,-53.622,-29.491C-55.039,-30.309,-56.187,-32.297,-56.187,-33.933C-56.187,-35.569,-55.039,-36.232,-53.622,-35.414C-52.206,-34.596,-51.057,-32.607,-51.057,-30.971Z" /></g><g id="Group 9"><path fill="#4a90e2" fill-opacity="1" d="M-40.183,-24.694C-40.183,-23.058,-41.331,-22.395,-42.748,-23.213C-44.164,-24.031,-45.313,-26.019,-45.313,-27.655C-45.313,-29.291,-44.164,-29.954,-42.748,-29.136C-41.331,-28.318,-40.183,-26.329,-40.183,-24.694Z" /></g><g id="Group 8"><path fill="#4a90e2" fill-opacity="1" d="M-61.931,43.112C-61.931,44.747,-63.079,45.411,-64.496,44.593C-65.913,43.775,-67.061,41.786,-67.061,40.15C-67.061,38.514,-65.913,37.852,-64.496,38.67C-63.079,39.488,-61.931,41.476,-61.931,43.112Z" /></g><g id="Group 7"><path fill="#d4ecff" fill-opacity="1" d="M-51.057,49.39C-51.057,51.026,-52.206,51.689,-53.622,50.871C-55.039,50.053,-56.187,48.065,-56.187,46.429C-56.187,44.793,-55.039,44.13,-53.622,44.948C-52.206,45.766,-51.057,47.754,-51.057,49.39Z" /></g><g id="Group 6"><path fill="#d4ecff" fill-opacity="1" d="M-40.183,55.668C-40.183,57.304,-41.331,57.967,-42.748,57.149C-44.164,56.331,-45.313,54.342,-45.313,52.706C-45.313,51.071,-44.164,50.408,-42.748,51.226C-41.331,52.044,-40.183,54.032,-40.183,55.668Z" /></g><g id="Group 5"><path fill="#4a90e2" fill-opacity="1" d="M-61.931,124.57C-61.931,126.206,-63.079,126.868,-64.496,126.05C-65.913,125.232,-67.061,123.244,-67.061,121.608C-67.061,119.973,-65.913,119.309,-64.496,120.127C-63.079,120.945,-61.931,122.934,-61.931,124.57Z" /></g><g id="Group 4"><path fill="#ff2c9c" fill-opacity="1" d="M-51.057,130.848C-51.057,132.484,-52.206,133.146,-53.622,132.328C-55.039,131.51,-56.187,129.522,-56.187,127.886C-56.187,126.25,-55.039,125.587,-53.622,126.405C-52.206,127.223,-51.057,129.212,-51.057,130.848Z" /></g><g id="Group 3"><path fill="#d4ecff" fill-opacity="1" d="M-40.183,137.126C-40.183,138.761,-41.331,139.425,-42.748,138.607C-44.164,137.789,-45.313,135.8,-45.313,134.164C-45.313,132.528,-44.164,131.865,-42.748,132.683C-41.331,133.501,-40.183,135.49,-40.183,137.126Z" /></g><g id="Group 2"><g id="Group 1"><path fill="#173d7a" fill-opacity="1" d="M18.457,-200.035L18.457,155.367L164.637,70.97L164.637,-284.432L18.457,-200.035ZM15.458,160.563L15.458,-201.769L16.207,-202.2L167.636,-289.628L167.636,72.704L166.886,73.134L15.458,160.563Z" /></g></g><g id="Group 1"><g id="Group 3"><path fill="#173d7a" fill-opacity="1" d="M128.299,-126.603L60.4,-87.402C55.839,-84.769,52.142,-87.564,52.142,-93.645L52.142,-131.291C52.142,-137.372,55.839,-144.438,60.4,-147.071L128.299,-186.272C132.86,-188.905,136.557,-186.11,136.557,-180.029L136.557,-142.383C136.557,-136.302,132.86,-129.236,128.299,-126.603Z" /></g><g id="Group 2"><path fill="#5793ce" fill-opacity="1" d="M129.946,-187.002C130.334,-185.949,130.559,-184.688,130.559,-183.226L130.559,-145.579C130.559,-139.498,126.861,-132.434,122.3,-129.801L54.402,-90.599C53.838,-90.273,53.287,-90.033,52.755,-89.87C53.981,-86.545,56.937,-85.401,60.401,-87.402L128.299,-126.603C132.86,-129.237,136.557,-136.301,136.557,-142.382L136.557,-180.029C136.557,-185.358,133.717,-188.161,129.946,-187.002Z" /></g><g id="Group 1"><g id="Group 3"><g id="Group 6"><path fill="#ffffff" fill-opacity="1" d="M115.897,-149.275C117.153,-150,118.17,-149.412,118.17,-147.963L118.17,-139.388C118.17,-137.938,117.153,-136.176,115.897,-135.451C114.641,-134.726,113.624,-135.313,113.624,-136.763L113.624,-145.339C113.624,-146.788,114.641,-148.55,115.897,-149.275Z" /></g><g id="Group 5"><path fill="#d4ecff" fill-opacity="1" d="M106.156,-142.58C107.412,-143.305,108.429,-142.717,108.429,-141.268L108.429,-133.764C108.429,-132.314,107.412,-130.553,106.156,-129.828C104.901,-129.103,103.884,-129.69,103.884,-131.14L103.884,-138.643C103.884,-140.092,104.901,-141.855,106.156,-142.58Z" /></g><g id="Group 4"><path fill="#ff2c9c" fill-opacity="1" d="M96.416,-145.328C97.671,-146.053,98.689,-145.466,98.689,-144.016L98.689,-128.141C98.689,-126.691,97.671,-124.929,96.416,-124.204C95.16,-123.479,94.144,-124.066,94.144,-125.516L94.144,-141.392C94.144,-142.842,95.16,-144.603,96.416,-145.328Z" /></g><g id="Group 3"><path fill="#d4ecff" fill-opacity="1" d="M86.676,-148.853C87.932,-149.578,88.949,-148.99,88.949,-147.541L88.949,-122.517C88.949,-121.067,87.932,-119.306,86.676,-118.581C85.421,-117.856,84.403,-118.443,84.403,-119.893L84.403,-144.917C84.403,-146.366,85.421,-148.128,86.676,-148.853Z" /></g><g id="Group 2"><path fill="#d4ecff" fill-opacity="1" d="M76.936,-140.605C78.191,-141.33,79.208,-140.742,79.208,-139.293L79.208,-116.893C79.208,-115.443,78.191,-113.682,76.936,-112.957C75.68,-112.232,74.663,-112.819,74.663,-114.269L74.663,-136.669C74.663,-138.118,75.68,-139.88,76.936,-140.605Z" /></g><g id="Group 1"><path fill="#ffffff" fill-opacity="1" d="M67.195,-124.747C68.451,-125.472,69.468,-124.885,69.468,-123.435L69.468,-111.27C69.468,-109.82,68.451,-108.058,67.195,-107.333C65.939,-106.608,64.923,-107.196,64.923,-108.646L64.923,-120.811C64.923,-122.261,65.939,-124.022,67.195,-124.747Z" /></g></g><g id="Group 2"><path fill="#ff2c9c" fill-opacity="1" d="M113.662,-153.607C113.662,-152.182,114.663,-151.604,115.897,-152.317C117.131,-153.03,118.132,-154.763,118.132,-156.188C118.132,-157.613,117.131,-158.192,115.897,-157.479C114.663,-156.766,113.662,-155.032,113.662,-153.607Z" /></g><g id="Group 1"><path fill="#ffffff" fill-opacity="1" d="M113.662,-161.668C113.662,-160.243,114.663,-159.664,115.897,-160.377C117.131,-161.09,118.132,-162.824,118.132,-164.249C118.132,-165.674,117.131,-166.252,115.897,-165.539C114.663,-164.826,113.662,-163.094,113.662,-161.668Z" /></g></g></g></g></g><g id="Left"><g transform="translate(404.167,664.048)"><animateTransform repeatCount="indefinite" type="translate" attributeName="transform" dur="2s" begin="0s" calcMode="spline" values="404.167 664.048; 333.167 624.048; 404.167 664.048" keyTimes="0; 0.5; 1" keySplines="0.333 0 0.667 1; 0.333 0 0.667 1" fill="freeze" /><g transform="scale(1,1) translate(11.333,-329.048)"><g transform="matrix(1,0,0,1,0,0)" id="Left Sh"><g id="Group 1"><path fill="#7dc3ea" fill-opacity="1" d="M-22.868,483.082L-126.692,423.14C-133.064,419.461,-132.265,413.035,-124.907,408.787L-24.657,350.907C-17.299,346.659,-6.169,346.198,0.203,349.877L104.027,409.82C110.399,413.499,109.6,419.924,102.242,424.172L1.992,482.052C-5.366,486.3,-16.496,486.761,-22.868,483.082Z" /></g></g></g></g></g><g transform="matrix(1,0,0,1,415.5,335)" id="Left B"><g id="Group 1"><path fill="#4a90e2" fill-opacity="1" d="M-19.922,445.173C-15.339,447.814,-6.484,447.333,-0.958,444.142L99.292,386.261C101.813,384.807,102.418,383.491,102.432,383.244C102.397,383.173,102.059,382.689,101.081,382.122L-2.748,322.178C-7.322,319.537,-16.179,320.017,-21.711,323.21L-121.959,381.088C-124.48,382.542,-125.081,383.858,-125.096,384.105C-125.061,384.178,-124.723,384.663,-123.745,385.23L-19.919,445.173L-19.922,445.173ZM-12.016,458.688C-17.093,458.688,-21.987,457.597,-25.815,455.385L-25.818,455.385L-129.641,395.442C-134.248,392.783,-136.889,388.65,-136.892,384.102C-136.892,379.011,-133.599,374.19,-127.858,370.876L-27.607,312.998C-18.332,307.639,-5.112,307.193,3.149,311.967L106.977,371.91C111.583,374.569,114.225,378.702,114.225,383.247C114.225,388.338,110.931,393.159,105.188,396.473L4.941,454.354C-0.036,457.227,-6.146,458.688,-12.016,458.688Z" /></g></g><g id="Left"><g transform="translate(404.167,664.048)"><animateTransform repeatCount="indefinite" type="translate" attributeName="transform" dur="2s" begin="0s" calcMode="spline" values="404.167 664.048; 333.167 624.048; 404.167 664.048" keyTimes="0; 0.5; 1" keySplines="0.333 0 0.667 1; 0.333 0 0.667 1" fill="freeze" /><g transform="scale(1,1) translate(11.333,-329.048)"><g id="Group 7"><path fill="#396caa" fill-opacity="1" d="M108.296,346.517L108.296,346.517L108.296,310.694L27.969,310.649L0.203,294.618C-6.169,290.939,-17.299,291.401,-24.657,295.649L-50.561,310.605L-130.961,310.56L-130.961,347.403C-131.142,349.893,-129.754,352.296,-126.692,354.063L-22.868,414.006C-16.496,417.685,-5.366,417.223,1.992,412.975L102.242,355.096C106.486,352.646,108.534,349.471,108.296,346.517Z" /></g><g id="Group 6"><path fill="#5d91c7" fill-opacity="1" d="M-11.331,292.154C-15.994,292.267,-20.834,293.442,-24.657,295.649L-50.561,310.605L-130.961,310.56L-130.961,347.403C-131.142,349.893,-129.754,352.296,-126.692,354.063L-22.868,414.006C-19.806,415.774,-15.644,416.575,-11.331,416.47L-11.331,292.154Z" /></g><g id="Group 5"><path fill="#5793ce" fill-opacity="1" d="M-21.269,414.789C-15.773,417.144,-7.823,417.013,-1.396,414.562L-1.396,372.73L-21.269,372.73L-21.269,414.789Z" /></g><g id="Group 4"><path fill="#cce7fc" fill-opacity="1" d="M-22.868,377.296L-126.692,317.354C-133.064,313.675,-132.265,307.249,-124.907,303.001L-24.657,245.121C-17.299,240.873,-6.169,240.412,0.203,244.091L104.027,304.034C110.399,307.713,109.6,314.138,102.242,318.386L1.992,376.266C-5.366,380.514,-16.496,380.975,-22.868,377.296Z" /></g><g id="Group 3"><path fill="#4a90e2" fill-opacity="1" d="M102.242,311.337L1.992,369.216C-5.366,373.464,-16.496,373.926,-22.868,370.247L-126.692,310.304C-128.113,309.484,-129.157,308.522,-129.871,307.483C-132.06,311.006,-131.068,314.828,-126.692,317.354L-22.868,377.296C-16.496,380.975,-5.366,380.514,1.992,376.266L102.242,318.386C107.959,315.085,109.696,310.474,107.206,306.854C106.207,308.461,104.547,310.006,102.242,311.337Z" /></g><g id="Group 2"><g id="Group 3"><path fill="#d4ecff" fill-opacity="1" d="M70.108,355.971C70.108,358.645,68.231,361.897,65.915,363.234C63.599,364.571,61.721,363.487,61.721,360.813C61.721,358.139,63.599,354.887,65.915,353.55C68.231,352.213,70.108,353.297,70.108,355.971Z" /></g><g id="Group 2"><path fill="#d4ecff" fill-opacity="1" d="M83.6,348.181C83.6,350.855,81.723,354.107,79.407,355.444C77.091,356.781,75.213,355.697,75.213,353.023C75.213,350.349,77.091,347.097,79.407,345.76C81.723,344.423,83.6,345.507,83.6,348.181Z" /></g><g id="Group 1"><path fill="#d4ecff" fill-opacity="1" d="M97.092,340.391C97.092,343.065,95.215,346.317,92.899,347.654C90.583,348.991,88.705,347.908,88.705,345.234C88.705,342.56,90.583,339.307,92.899,337.97C95.215,336.633,97.092,337.717,97.092,340.391Z" /></g></g><g id="Group 1"><g id="Group 3"><path fill="#5793ce" fill-opacity="1" d="M-16.729,340.133L-65.313,312.083C-68.295,310.362,-67.921,307.354,-64.478,305.366L-17.566,278.282C-14.123,276.294,-8.915,276.077,-5.933,277.799L42.651,305.849C45.633,307.571,45.259,310.578,41.816,312.566L-5.096,339.651C-8.539,341.639,-13.747,341.855,-16.729,340.133Z" /></g><g id="Group 2"><path fill="#d4ecff" fill-opacity="1" d="M-12.078,316.647L-18.8,312.766C-19.213,312.528,-19.161,312.112,-18.684,311.837L-12.194,308.089C-11.717,307.814,-10.997,307.785,-10.584,308.023L-3.862,311.903C-3.45,312.141,-3.502,312.558,-3.978,312.833L-10.469,316.58C-10.945,316.855,-11.665,316.885,-12.078,316.647Z" /></g><g id="Group 1"><path fill="#396caa" fill-opacity="1" d="M-65.313,312.083L-65.176,312.162C-64.95,312,-64.74,311.833,-64.478,311.682L-17.566,284.598C-14.123,282.61,-8.915,282.393,-5.933,284.115L42.514,312.086C45.262,310.119,45.406,307.44,42.651,305.849L-5.933,277.799C-8.915,276.077,-14.123,276.294,-17.566,278.282L-64.478,305.366C-67.921,307.354,-68.295,310.361,-65.313,312.083Z" /></g></g></g></g></g><g id="Left B Sh"><g transform="translate(425.209,958.541)"><g transform="scale(1,1)"><animateTransform repeatCount="indefinite" type="scale" attributeName="transform" dur="2s" begin="0.333s" calcMode="spline" values="1 1; 0.8 0.8; 1 1; 1 1" keyTimes="0; 0.417; 0.833; 1" keySplines="0.333 0 0.067 1; 0.934 0 0.667 1; 0 0 1 1" fill="freeze" /><g transform="translate(391.791,-405.541)"><g id="Group 1"><path fill="#7dc3ea" fill-opacity="1" d="M-391.79,444.777L-459.75,405.54L-391.792,366.305L-323.832,405.541L-391.79,444.777Z" /></g></g></g></g></g><g transform="matrix(1,0,0,1,817,553)" id="Left B"><g id="Group 1"><path fill="#4a90e2" fill-opacity="1" d="M-449.417,376.076L-391.789,409.347L-334.164,376.076L-391.792,342.808L-449.417,376.076ZM-391.789,420.481C-392.682,420.481,-393.572,420.249,-394.371,419.788L-462.332,380.55C-463.93,379.627,-464.917,377.921,-464.917,376.076C-464.917,374.231,-463.93,372.524,-462.332,371.601L-394.374,332.367C-392.776,331.444,-390.808,331.444,-389.21,332.367L-321.249,371.601C-319.651,372.524,-318.664,374.231,-318.664,376.076C-318.664,377.921,-319.648,379.627,-321.249,380.55L-389.207,419.788C-390.006,420.249,-390.896,420.481,-391.789,420.481Z" /></g></g><g id="Left"><g transform="translate(425.21,859.185)"><animateTransform repeatCount="indefinite" type="translate" attributeName="transform" dur="2s" begin="0.333s" calcMode="spline" values="425.21 859.185; 425.21 789.185; 425.21 859.185; 425.21 859.185" keyTimes="0; 0.417; 0.833; 1" keySplines="0.333 0 0.078 1; 0.934 0 0.667 1; 0 0 1 1" fill="freeze" /><g transform="scale(1,1) translate(391.79,-306.185)"><g id="Group 2"><path fill="#396caa" fill-opacity="1" d="M-391.79,384.654L-459.748,345.418L-459.748,266.949L-391.79,306.185L-391.79,384.654Z" /></g><g id="Group 1"><g id="Group 3"><path fill="#214883" fill-opacity="1" d="M-323.832,345.418L-391.79,384.654L-391.79,306.185L-323.832,266.949L-323.832,345.418Z" /></g><g id="Group 2"><path fill="#cce7fc" fill-opacity="1" d="M-391.79,306.185L-459.748,266.949L-391.792,227.715L-323.834,266.95L-391.79,306.185Z" /></g><g id="Group 1"><path fill="#4a90e2" fill-opacity="1" d="M-416.265,342.262L-435.273,331.289L-435.273,309.341L-416.265,320.315L-416.265,342.262Z" /></g></g></g></g></g><g id="Right Bottom Sh 2"><g transform="translate(1184.209,537.541)"><g transform="scale(1,1)"><animateTransform repeatCount="indefinite" type="scale" attributeName="transform" dur="2s" begin="0.333s" calcMode="spline" values="1 1; 0.8 0.8; 1 1; 1 1" keyTimes="0; 0.417; 0.833; 1" keySplines="0.333 0 0.067 1; 0.934 0 0.667 1; 0 0 1 1" fill="freeze" /><g transform="translate(391.791,-405.541)"><g id="Group 1"><path fill="#7dc3ea" fill-opacity="1" d="M-391.79,444.777L-459.75,405.54L-391.792,366.305L-323.832,405.541L-391.79,444.777Z" /></g></g></g></g></g><g transform="matrix(1,0,0,1,1576,132)" id="Right Bottom B 2"><g id="Group 1"><path fill="#4a90e2" fill-opacity="1" d="M-449.417,376.076L-391.789,409.347L-334.164,376.076L-391.792,342.808L-449.417,376.076ZM-391.789,420.481C-392.682,420.481,-393.572,420.249,-394.371,419.788L-462.332,380.55C-463.93,379.627,-464.917,377.921,-464.917,376.076C-464.917,374.231,-463.93,372.524,-462.332,371.601L-394.374,332.367C-392.776,331.444,-390.808,331.444,-389.21,332.367L-321.249,371.601C-319.651,372.524,-318.664,374.231,-318.664,376.076C-318.664,377.921,-319.648,379.627,-321.249,380.55L-389.207,419.788C-390.006,420.249,-390.896,420.481,-391.789,420.481Z" /></g></g><g id="Top Right"><g transform="translate(1184.21,438.185)"><animateTransform repeatCount="indefinite" type="translate" attributeName="transform" dur="2s" begin="0.333s" calcMode="spline" values="1184.21 438.185; 1184.21 368.185; 1184.21 438.185; 1184.21 438.185" keyTimes="0; 0.417; 0.833; 1" keySplines="0.333 0 0.078 1; 0.934 0 0.667 1; 0 0 1 1" fill="freeze" /><g transform="scale(1,1) translate(391.79,-306.185)"><g id="Group 2"><path fill="#396caa" fill-opacity="1" d="M-391.79,384.654L-459.748,345.418L-459.748,266.949L-391.79,306.185L-391.79,384.654Z" /></g><g id="Group 1"><g id="Group 3"><path fill="#214883" fill-opacity="1" d="M-323.832,345.418L-391.79,384.654L-391.79,306.185L-323.832,266.949L-323.832,345.418Z" /></g><g id="Group 2"><path fill="#cce7fc" fill-opacity="1" d="M-391.79,306.185L-459.748,266.949L-391.792,227.715L-323.834,266.95L-391.79,306.185Z" /></g><g id="Group 1"><path fill="#4a90e2" fill-opacity="1" d="M-416.265,342.262L-435.273,331.289L-435.273,309.341L-416.265,320.315L-416.265,342.262Z" /></g></g></g></g></g><g id="Right"><g transform="translate(1170.167,664.048)"><animateTransform repeatCount="indefinite" type="translate" attributeName="transform" dur="2s" begin="0s" calcMode="spline" values="1170.167 664.048; 1230.167 639.048; 1170.167 664.048" keyTimes="0; 0.5; 1" keySplines="0.333 0 0.667 1; 0.333 0 0.667 1" fill="freeze" /><g transform="scale(1,1) translate(11.333,-329.048)"><g transform="matrix(1,0,0,1,0,0)" id="Right B Sh"><g id="Group 1"><path fill="#7dc3ea" fill-opacity="1" d="M-22.868,483.082L-126.692,423.14C-133.064,419.461,-132.265,413.035,-124.907,408.787L-24.657,350.907C-17.299,346.659,-6.169,346.198,0.203,349.877L104.027,409.82C110.399,413.499,109.6,419.924,102.242,424.172L1.992,482.052C-5.366,486.3,-16.496,486.761,-22.868,483.082Z" /></g></g></g></g></g><g transform="matrix(1,0,0,1,1181.5,335)" id="Right B"><g id="Group 1"><path fill="#4a90e2" fill-opacity="1" d="M-19.922,445.173C-15.339,447.814,-6.484,447.333,-0.958,444.142L99.292,386.261C101.813,384.807,102.418,383.491,102.432,383.244C102.397,383.173,102.059,382.689,101.081,382.122L-2.748,322.178C-7.322,319.537,-16.179,320.017,-21.711,323.21L-121.959,381.088C-124.48,382.542,-125.081,383.858,-125.096,384.105C-125.061,384.178,-124.723,384.663,-123.745,385.23L-19.919,445.173L-19.922,445.173ZM-12.016,458.688C-17.093,458.688,-21.987,457.597,-25.815,455.385L-25.818,455.385L-129.641,395.442C-134.248,392.783,-136.889,388.65,-136.892,384.102C-136.892,379.011,-133.599,374.19,-127.858,370.876L-27.607,312.998C-18.332,307.639,-5.112,307.193,3.149,311.967L106.977,371.91C111.583,374.569,114.225,378.702,114.225,383.247C114.225,388.338,110.931,393.159,105.188,396.473L4.941,454.354C-0.036,457.227,-6.146,458.688,-12.016,458.688Z" /></g></g><g id="Right"><g transform="translate(1170.167,664.048)"><animateTransform repeatCount="indefinite" type="translate" attributeName="transform" dur="2s" begin="0s" calcMode="spline" values="1170.167 664.048; 1230.167 639.048; 1170.167 664.048" keyTimes="0; 0.5; 1" keySplines="0.333 0 0.667 1; 0.333 0 0.667 1" fill="freeze" /><g transform="scale(1,1) translate(11.333,-329.048)"><g id="Group 7"><path fill="#396caa" fill-opacity="1" d="M108.296,346.517L108.296,346.517L108.296,310.694L27.969,310.649L0.203,294.618C-6.169,290.939,-17.299,291.401,-24.657,295.649L-50.561,310.605L-130.961,310.56L-130.961,347.403C-131.142,349.893,-129.754,352.296,-126.692,354.063L-22.868,414.006C-16.496,417.685,-5.366,417.223,1.992,412.975L102.242,355.096C106.486,352.646,108.534,349.471,108.296,346.517Z" /></g><g id="Group 6"><path fill="#5d91c7" fill-opacity="1" d="M-11.331,292.154C-15.994,292.267,-20.834,293.442,-24.657,295.649L-50.561,310.605L-130.961,310.56L-130.961,347.403C-131.142,349.893,-129.754,352.296,-126.692,354.063L-22.868,414.006C-19.806,415.774,-15.644,416.575,-11.331,416.47L-11.331,292.154Z" /></g><g id="Group 5"><path fill="#5793ce" fill-opacity="1" d="M-21.269,414.789C-15.773,417.144,-7.823,417.013,-1.396,414.562L-1.396,372.73L-21.269,372.73L-21.269,414.789Z" /></g><g id="Group 4"><path fill="#cce7fc" fill-opacity="1" d="M-22.868,377.296L-126.692,317.354C-133.064,313.675,-132.265,307.249,-124.907,303.001L-24.657,245.121C-17.299,240.873,-6.169,240.412,0.203,244.091L104.027,304.034C110.399,307.713,109.6,314.138,102.242,318.386L1.992,376.266C-5.366,380.514,-16.496,380.975,-22.868,377.296Z" /></g><g id="Group 3"><path fill="#4a90e2" fill-opacity="1" d="M102.242,311.337L1.992,369.216C-5.366,373.464,-16.496,373.926,-22.868,370.247L-126.692,310.304C-128.113,309.484,-129.157,308.522,-129.871,307.483C-132.06,311.006,-131.068,314.828,-126.692,317.354L-22.868,377.296C-16.496,380.975,-5.366,380.514,1.992,376.266L102.242,318.386C107.959,315.085,109.696,310.474,107.206,306.854C106.207,308.461,104.547,310.006,102.242,311.337Z" /></g><g id="Group 2"><g id="Group 3"><path fill="#d4ecff" fill-opacity="1" d="M70.108,355.971C70.108,358.645,68.231,361.897,65.915,363.234C63.599,364.571,61.721,363.487,61.721,360.813C61.721,358.139,63.599,354.887,65.915,353.55C68.231,352.213,70.108,353.297,70.108,355.971Z" /></g><g id="Group 2"><path fill="#d4ecff" fill-opacity="1" d="M83.6,348.181C83.6,350.855,81.723,354.107,79.407,355.444C77.091,356.781,75.213,355.697,75.213,353.023C75.213,350.349,77.091,347.097,79.407,345.76C81.723,344.423,83.6,345.507,83.6,348.181Z" /></g><g id="Group 1"><path fill="#d4ecff" fill-opacity="1" d="M97.092,340.391C97.092,343.065,95.215,346.317,92.899,347.654C90.583,348.991,88.705,347.908,88.705,345.234C88.705,342.56,90.583,339.307,92.899,337.97C95.215,336.633,97.092,337.717,97.092,340.391Z" /></g></g><g id="Group 1"><g id="Group 3"><path fill="#5793ce" fill-opacity="1" d="M-16.729,340.133L-65.313,312.083C-68.295,310.362,-67.921,307.354,-64.478,305.366L-17.566,278.282C-14.123,276.294,-8.915,276.077,-5.933,277.799L42.651,305.849C45.633,307.571,45.259,310.578,41.816,312.566L-5.096,339.651C-8.539,341.639,-13.747,341.855,-16.729,340.133Z" /></g><g id="Group 2"><path fill="#d4ecff" fill-opacity="1" d="M-12.078,316.647L-18.8,312.766C-19.213,312.528,-19.161,312.112,-18.684,311.837L-12.194,308.089C-11.717,307.814,-10.997,307.785,-10.584,308.023L-3.862,311.903C-3.45,312.141,-3.502,312.558,-3.978,312.833L-10.469,316.58C-10.945,316.855,-11.665,316.885,-12.078,316.647Z" /></g><g id="Group 1"><path fill="#396caa" fill-opacity="1" d="M-65.313,312.083L-65.176,312.162C-64.95,312,-64.74,311.833,-64.478,311.682L-17.566,284.598C-14.123,282.61,-8.915,282.393,-5.933,284.115L42.514,312.086C45.262,310.119,45.406,307.44,42.651,305.849L-5.933,277.799C-8.915,276.077,-14.123,276.294,-17.566,278.282L-64.478,305.366C-67.921,307.354,-68.295,310.361,-65.313,312.083Z" /></g></g></g></g></g><g id="Right Bottom Sh"><g transform="translate(1156.209,958.541)"><g transform="scale(1,1)"><animateTransform repeatCount="indefinite" type="scale" attributeName="transform" dur="2s" begin="0.333s" calcMode="spline" values="1 1; 0.8 0.8; 1 1; 1 1" keyTimes="0; 0.417; 0.833; 1" keySplines="0.333 0 0.067 1; 0.934 0 0.667 1; 0 0 1 1" fill="freeze" /><g transform="translate(391.791,-405.541)"><g id="Group 1"><path fill="#7dc3ea" fill-opacity="1" d="M-391.79,444.777L-459.75,405.54L-391.792,366.305L-323.832,405.541L-391.79,444.777Z" /></g></g></g></g></g><g transform="matrix(1,0,0,1,1548,553)" id="Right Bottom B"><g id="Group 1"><path fill="#4a90e2" fill-opacity="1" d="M-449.417,376.076L-391.789,409.347L-334.164,376.076L-391.792,342.808L-449.417,376.076ZM-391.789,420.481C-392.682,420.481,-393.572,420.249,-394.371,419.788L-462.332,380.55C-463.93,379.627,-464.917,377.921,-464.917,376.076C-464.917,374.231,-463.93,372.524,-462.332,371.601L-394.374,332.367C-392.776,331.444,-390.808,331.444,-389.21,332.367L-321.249,371.601C-319.651,372.524,-318.664,374.231,-318.664,376.076C-318.664,377.921,-319.648,379.627,-321.249,380.55L-389.207,419.788C-390.006,420.249,-390.896,420.481,-391.789,420.481Z" /></g></g><g id="Right Bottom"><g transform="translate(1156.21,859.185)"><animateTransform repeatCount="indefinite" type="translate" attributeName="transform" dur="2s" begin="0.333s" calcMode="spline" values="1156.21 859.185; 1156.21 789.185; 1156.21 859.185; 1156.21 859.185" keyTimes="0; 0.417; 0.833; 1" keySplines="0.333 0 0.078 1; 0.934 0 0.667 1; 0 0 1 1" fill="freeze" /><g transform="scale(1,1) translate(391.79,-306.185)"><g id="Group 2"><path fill="#396caa" fill-opacity="1" d="M-391.79,384.654L-459.748,345.418L-459.748,266.949L-391.79,306.185L-391.79,384.654Z" /></g><g id="Group 1"><g id="Group 3"><path fill="#214883" fill-opacity="1" d="M-323.832,345.418L-391.79,384.654L-391.79,306.185L-323.832,266.949L-323.832,345.418Z" /></g><g id="Group 2"><path fill="#cce7fc" fill-opacity="1" d="M-391.79,306.185L-459.748,266.949L-391.792,227.715L-323.834,266.95L-391.79,306.185Z" /></g><g id="Group 1"><path fill="#4a90e2" fill-opacity="1" d="M-416.265,342.262L-435.273,331.289L-435.273,309.341L-416.265,320.315L-416.265,342.262Z" /></g></g></g></g></g><g id="Mid"><g transform="translate(788.667,929.048)"><animateTransform repeatCount="indefinite" type="translate" attributeName="transform" dur="2s" begin="0s" calcMode="spline" values="788.667 929.048; 844.667 902.048; 889.667 929.048; 848.667 957.048; 788.667 929.048" keyTimes="0; 0.25; 0.5; 0.75; 1" keySplines="0.333 0 0.667 1; 0.333 0 0.667 1; 0.333 0 0.667 1; 0.333 0 0.667 1" fill="freeze" /><g transform="scale(1,1) translate(11.333,-329.048)"><g transform="matrix(1,0,0,1,0,0)" id="Mid Sh"><g id="Group 1"><path fill="#7dc3ea" fill-opacity="1" d="M-22.868,483.082L-126.692,423.14C-133.064,419.461,-132.265,413.035,-124.907,408.787L-24.657,350.907C-17.299,346.659,-6.169,346.198,0.203,349.877L104.027,409.82C110.399,413.499,109.6,419.924,102.242,424.172L1.992,482.052C-5.366,486.3,-16.496,486.761,-22.868,483.082Z" /></g></g></g></g></g><g transform="matrix(1,0,0,1,800,600)" id="mid B"><g id="Group 1"><path fill="#4a90e2" fill-opacity="1" d="M-19.922,445.173C-15.339,447.814,-6.484,447.333,-0.958,444.142L99.292,386.261C101.813,384.807,102.418,383.491,102.432,383.244C102.397,383.173,102.059,382.689,101.081,382.122L-2.748,322.178C-7.322,319.537,-16.179,320.017,-21.711,323.21L-121.959,381.088C-124.48,382.542,-125.081,383.858,-125.096,384.105C-125.061,384.178,-124.723,384.663,-123.745,385.23L-19.919,445.173L-19.922,445.173ZM-12.016,458.688C-17.093,458.688,-21.987,457.597,-25.815,455.385L-25.818,455.385L-129.641,395.442C-134.248,392.783,-136.889,388.65,-136.892,384.102C-136.892,379.011,-133.599,374.19,-127.858,370.876L-27.607,312.998C-18.332,307.639,-5.112,307.193,3.149,311.967L106.977,371.91C111.583,374.569,114.225,378.702,114.225,383.247C114.225,388.338,110.931,393.159,105.188,396.473L4.941,454.354C-0.036,457.227,-6.146,458.688,-12.016,458.688Z" /></g></g><g id="Mid"><g transform="translate(788.667,929.048)"><animateTransform repeatCount="indefinite" type="translate" attributeName="transform" dur="2s" begin="0s" calcMode="spline" values="788.667 929.048; 844.667 902.048; 889.667 929.048; 848.667 957.048; 788.667 929.048" keyTimes="0; 0.25; 0.5; 0.75; 1" keySplines="0.333 0 0.667 1; 0.333 0 0.667 1; 0.333 0 0.667 1; 0.333 0 0.667 1" fill="freeze" /><g transform="scale(1,1) translate(11.333,-329.048)"><g id="Group 7"><path fill="#396caa" fill-opacity="1" d="M108.296,346.517L108.296,346.517L108.296,310.694L27.969,310.649L0.203,294.618C-6.169,290.939,-17.299,291.401,-24.657,295.649L-50.561,310.605L-130.961,310.56L-130.961,347.403C-131.142,349.893,-129.754,352.296,-126.692,354.063L-22.868,414.006C-16.496,417.685,-5.366,417.223,1.992,412.975L102.242,355.096C106.486,352.646,108.534,349.471,108.296,346.517Z" /></g><g id="Group 6"><path fill="#5d91c7" fill-opacity="1" d="M-11.331,292.154C-15.994,292.267,-20.834,293.442,-24.657,295.649L-50.561,310.605L-130.961,310.56L-130.961,347.403C-131.142,349.893,-129.754,352.296,-126.692,354.063L-22.868,414.006C-19.806,415.774,-15.644,416.575,-11.331,416.47L-11.331,292.154Z" /></g><g id="Group 5"><path fill="#5793ce" fill-opacity="1" d="M-21.269,414.789C-15.773,417.144,-7.823,417.013,-1.396,414.562L-1.396,372.73L-21.269,372.73L-21.269,414.789Z" /></g><g id="Group 4"><path fill="#cce7fc" fill-opacity="1" d="M-22.868,377.296L-126.692,317.354C-133.064,313.675,-132.265,307.249,-124.907,303.001L-24.657,245.121C-17.299,240.873,-6.169,240.412,0.203,244.091L104.027,304.034C110.399,307.713,109.6,314.138,102.242,318.386L1.992,376.266C-5.366,380.514,-16.496,380.975,-22.868,377.296Z" /></g><g id="Group 3"><path fill="#4a90e2" fill-opacity="1" d="M102.242,311.337L1.992,369.216C-5.366,373.464,-16.496,373.926,-22.868,370.247L-126.692,310.304C-128.113,309.484,-129.157,308.522,-129.871,307.483C-132.06,311.006,-131.068,314.828,-126.692,317.354L-22.868,377.296C-16.496,380.975,-5.366,380.514,1.992,376.266L102.242,318.386C107.959,315.085,109.696,310.474,107.206,306.854C106.207,308.461,104.547,310.006,102.242,311.337Z" /></g><g id="Group 2"><g id="Group 3"><path fill="#d4ecff" fill-opacity="1" d="M70.108,355.971C70.108,358.645,68.231,361.897,65.915,363.234C63.599,364.571,61.721,363.487,61.721,360.813C61.721,358.139,63.599,354.887,65.915,353.55C68.231,352.213,70.108,353.297,70.108,355.971Z" /></g><g id="Group 2"><path fill="#d4ecff" fill-opacity="1" d="M83.6,348.181C83.6,350.855,81.723,354.107,79.407,355.444C77.091,356.781,75.213,355.697,75.213,353.023C75.213,350.349,77.091,347.097,79.407,345.76C81.723,344.423,83.6,345.507,83.6,348.181Z" /></g><g id="Group 1"><path fill="#d4ecff" fill-opacity="1" d="M97.092,340.391C97.092,343.065,95.215,346.317,92.899,347.654C90.583,348.991,88.705,347.908,88.705,345.234C88.705,342.56,90.583,339.307,92.899,337.97C95.215,336.633,97.092,337.717,97.092,340.391Z" /></g></g><g id="Group 1"><g id="Group 3"><path fill="#5793ce" fill-opacity="1" d="M-16.729,340.133L-65.313,312.083C-68.295,310.362,-67.921,307.354,-64.478,305.366L-17.566,278.282C-14.123,276.294,-8.915,276.077,-5.933,277.799L42.651,305.849C45.633,307.571,45.259,310.578,41.816,312.566L-5.096,339.651C-8.539,341.639,-13.747,341.855,-16.729,340.133Z" /></g><g id="Group 2"><path fill="#d4ecff" fill-opacity="1" d="M-12.078,316.647L-18.8,312.766C-19.213,312.528,-19.161,312.112,-18.684,311.837L-12.194,308.089C-11.717,307.814,-10.997,307.785,-10.584,308.023L-3.862,311.903C-3.45,312.141,-3.502,312.558,-3.978,312.833L-10.469,316.58C-10.945,316.855,-11.665,316.885,-12.078,316.647Z" /></g><g id="Group 1"><path fill="#396caa" fill-opacity="1" d="M-65.313,312.083L-65.176,312.162C-64.95,312,-64.74,311.833,-64.478,311.682L-17.566,284.598C-14.123,282.61,-8.915,282.393,-5.933,284.115L42.514,312.086C45.262,310.119,45.406,307.44,42.651,305.849L-5.933,277.799C-8.915,276.077,-14.123,276.294,-17.566,278.282L-64.478,305.366C-67.921,307.354,-68.295,310.361,-65.313,312.083Z" /></g></g></g></g></g><g id="Right Left Sh"><g transform="translate(417.709,537.541)"><g transform="scale(1,1)"><animateTransform repeatCount="indefinite" type="scale" attributeName="transform" dur="2s" begin="0.333s" calcMode="spline" values="1 1; 0.8 0.8; 1 1; 1 1" keyTimes="0; 0.417; 0.833; 1" keySplines="0.333 0 0.067 1; 0.934 0 0.667 1; 0 0 1 1" fill="freeze" /><g transform="translate(391.791,-405.541)"><g id="Group 1"><path fill="#7dc3ea" fill-opacity="1" d="M-391.79,444.777L-459.75,405.54L-391.792,366.305L-323.832,405.541L-391.79,444.777Z" /></g></g></g></g></g><g transform="matrix(1,0,0,1,809.5,132)" id="Right Left B"><g id="Group 1"><path fill="#4a90e2" fill-opacity="1" d="M-449.417,376.076L-391.789,409.347L-334.164,376.076L-391.792,342.808L-449.417,376.076ZM-391.789,420.481C-392.682,420.481,-393.572,420.249,-394.371,419.788L-462.332,380.55C-463.93,379.627,-464.917,377.921,-464.917,376.076C-464.917,374.231,-463.93,372.524,-462.332,371.601L-394.374,332.367C-392.776,331.444,-390.808,331.444,-389.21,332.367L-321.249,371.601C-319.651,372.524,-318.664,374.231,-318.664,376.076C-318.664,377.921,-319.648,379.627,-321.249,380.55L-389.207,419.788C-390.006,420.249,-390.896,420.481,-391.789,420.481Z" /></g></g><g id="Top Left"><g transform="translate(417.71,438.185)"><animateTransform repeatCount="indefinite" type="translate" attributeName="transform" dur="2s" begin="0.333s" calcMode="spline" values="417.71 438.185; 417.71 368.185; 417.71 438.185; 417.71 438.185" keyTimes="0; 0.417; 0.833; 1" keySplines="0.333 0 0.078 1; 0.934 0 0.667 1; 0 0 1 1" fill="freeze" /><g transform="scale(1,1) translate(391.79,-306.185)"><g id="Group 2"><path fill="#396caa" fill-opacity="1" d="M-391.79,384.654L-459.748,345.418L-459.748,266.949L-391.79,306.185L-391.79,384.654Z" /></g><g id="Group 1"><g id="Group 3"><path fill="#214883" fill-opacity="1" d="M-323.832,345.418L-391.79,384.654L-391.79,306.185L-323.832,266.949L-323.832,345.418Z" /></g><g id="Group 2"><path fill="#cce7fc" fill-opacity="1" d="M-391.79,306.185L-459.748,266.949L-391.792,227.715L-323.834,266.95L-391.79,306.185Z" /></g><g id="Group 1"><path fill="#4a90e2" fill-opacity="1" d="M-416.265,342.262L-435.273,331.289L-435.273,309.341L-416.265,320.315L-416.265,342.262Z" /></g></g></g></g></g></svg>